<svg width="896" height="796" viewBox="0 0 896 796" fill="none" xmlns="http://www.w3.org/2000/svg">
<path opacity="0.5" fill-rule="evenodd" clip-rule="evenodd" d="M886.075 796H19.2691C8.29422 648.198 154.012 555.063 233.18 504.462C243.465 497.889 252.626 492.033 260.175 486.869C293.263 464.232 317.799 414.801 343.894 362.228C391.97 265.372 445.337 157.855 567.226 187.591C674.389 213.802 835.447 325.332 896 492.181V769.297C892.996 778.129 889.691 787.031 886.075 796Z" fill="url(#paint0_linear)"/>
<path d="M495 601C369.079 601 267 611.297 267 624C267 636.703 369.079 647 495 647C620.921 647 723 636.703 723 624C723 611.297 620.921 601 495 601Z" fill="#F0F0F5"/>
<path d="M701.38 534.817C701.38 534.817 669.032 627.056 665.566 627.056C662.1 627.056 592.782 648.963 654.013 621.291C654.013 621.291 660.945 520.981 671.342 516.369C681.74 511.758 701.38 534.817 701.38 534.817Z" fill="#965450"/>
<path d="M677.119 601.229C687.632 573.903 701.38 534.817 701.38 534.817C701.38 534.817 681.74 511.758 671.342 516.369C664.642 519.367 659.327 562.489 656.439 592.466C663.371 595.234 670.187 598.231 677.119 601.229Z" fill="#76413B"/>
<path d="M643.962 626.249C643.962 626.249 641.305 632.36 666.721 625.903L665.566 629.362C665.566 629.362 593.937 646.196 643.962 626.249Z" fill="#051F38"/>
<path d="M681.739 495.731C681.739 495.731 731.764 579.784 729.569 582.436C727.374 585.087 699.646 652.191 717.669 587.509C717.669 587.509 645.116 517.753 648.236 506.8C651.471 495.962 681.739 495.731 681.739 495.731Z" fill="#965450"/>
<path d="M715.128 598.347C715.128 598.347 718.132 604.342 729.454 580.706L731.418 583.819C731.302 583.819 698.261 649.539 715.128 598.347Z" fill="#051F38"/>
<path d="M710.854 545.771C697.452 522.134 681.74 495.731 681.74 495.731C681.74 495.731 651.471 495.962 648.236 506.8C646.157 513.833 675.964 545.655 697.106 567.101C697.221 567.216 705.424 558.108 710.854 545.771Z" fill="#76413B"/>
<path d="M713.509 369.364C713.509 369.364 682.894 335.351 664.987 356.681C647.08 378.011 619.353 448.343 623.396 477.168C625.822 494.117 642.112 512.219 655.167 524.325L644.192 586.125C644.192 586.125 689.248 598.231 686.36 598.231C684.627 598.231 730.839 474.286 735.46 435.084C740.081 395.883 713.509 369.364 713.509 369.364Z" fill="#6633CC"/>
<path opacity="0.2" d="M690.058 376.974C698.607 376.858 707.965 375.705 716.168 372.362C714.551 370.402 713.511 369.364 713.511 369.364C713.511 369.364 682.895 335.351 664.988 356.681C662.216 360.025 659.212 364.406 656.208 369.71C666.259 375.244 678.967 377.204 690.058 376.974Z" fill="#352C38"/>
<path opacity="0.2" d="M644.193 393.461C631.485 422.401 620.74 458.374 623.398 477.053C625.708 493.886 641.882 511.873 654.937 523.979C659.558 492.618 667.992 449.035 673.075 423.9C660.483 416.752 650.085 406.49 644.193 393.461Z" fill="#352C38"/>
<path d="M625.131 301.337L606.646 337.08C606.646 337.08 574.298 319.209 569.676 319.209C565.055 319.209 543.105 319.785 553.502 324.397C553.502 324.397 548.881 327.279 554.08 328.432C554.08 328.432 549.459 332.468 555.235 333.044L568.521 332.468C568.521 332.468 595.093 356.681 608.379 360.139C621.665 363.598 643.038 318.632 643.038 318.632L625.131 301.337Z" fill="#965450"/>
<path d="M628.135 326.934C631.023 327.972 634.027 329.01 637.03 330.047C640.727 323.591 643.038 318.517 643.038 318.517L625.131 301.223L614.964 320.823C619.008 323.36 623.513 325.32 628.135 326.934Z" fill="#76413B"/>
<path d="M648.236 284.043C648.236 284.043 630.907 281.161 624.552 290.385C618.198 299.608 615.31 314.597 615.31 314.597L640.149 326.704L648.236 284.043Z" fill="#34CB79"/>
<path opacity="0.1" d="M638.648 316.673C632.294 311.715 625.016 305.489 620.279 297.994C616.813 306.065 615.196 314.482 615.196 314.482L640.034 326.588L641.536 318.748C640.612 318.172 639.572 317.48 638.648 316.673Z" fill="#161826"/>
<path d="M526.699 314.943C527.392 316.788 526.353 318.863 524.504 319.555L510.872 324.513C509.023 325.205 506.944 324.167 506.25 322.322L500.821 307.218C500.127 305.373 501.167 303.298 503.016 302.606L516.648 297.648C518.497 296.957 520.576 297.994 521.269 299.839L526.699 314.943Z" fill="#23173B"/>
<path d="M537.674 303.644L494.928 318.979C487.419 321.63 483.607 329.932 486.264 337.426L499.434 373.976C502.091 381.47 510.409 385.275 517.919 382.623L560.665 367.289C568.174 364.637 571.987 356.335 569.33 348.841L556.159 312.291C553.387 304.797 545.184 300.877 537.674 303.644ZM565.171 352.185C566.21 355.182 564.708 358.526 561.705 359.564L543.335 308.832C546.339 307.795 549.69 309.294 550.729 312.291L565.171 352.185Z" fill="#322153"/>
<path d="M523.926 299.608C524.504 301.223 523.695 303.067 522.078 303.644L502.669 310.677C501.051 311.254 499.203 310.447 498.625 308.832L497.008 304.336C496.43 302.722 497.239 300.877 498.856 300.3L518.265 293.267C519.883 292.691 521.731 293.498 522.309 295.112L523.926 299.608Z" fill="#6633CC"/>
<path d="M551.192 321.515C551.192 321.515 558.47 318.979 559.741 320.477C560.896 321.861 553.618 323.936 553.964 324.052C554.195 324.167 561.82 322.438 562.514 324.052C563.207 325.666 554.427 328.548 554.427 328.548C554.427 328.548 562.745 326.242 563.322 327.972C563.9 329.701 554.658 332.238 554.658 332.238L554.195 328.433L553.618 324.052L551.192 321.515Z" fill="#965450"/>
<path d="M561.474 319.555C561.474 319.555 555.813 315.75 555.813 314.482C555.697 313.098 570.832 319.44 570.832 319.44L561.474 319.555Z" fill="#965450"/>
<path d="M673.075 281.161C671.92 283.236 677.581 234.926 677.581 234.926L651.356 252.567C651.356 252.567 653.666 283.467 650.778 283.582C649.623 283.582 645.117 285.312 640.149 287.156C641.305 292.921 643.615 294.189 645.579 299.724C660.252 299.609 676.195 299.263 685.206 285.888C680.007 284.159 674.577 278.278 673.075 281.161Z" fill="#76413B"/>
<path d="M648.237 284.043L647.081 280.008L675.964 273.666L677.119 280.584C677.119 280.584 711.778 292.114 716.399 318.056C721.02 343.998 718.71 360.717 713.511 369.364C713.511 369.364 673.076 375.129 655.746 366.482C638.417 357.834 620.509 293.267 629.752 287.502C638.994 281.737 648.237 284.043 648.237 284.043Z" fill="#34CB79"/>
<path opacity="0.1" d="M686.015 355.874C672.152 355.067 655.169 353.453 643.616 344.921C641.421 343.307 639.457 341.577 637.608 339.617C642.807 352.415 649.277 363.253 655.746 366.482C673.076 375.129 713.511 369.364 713.511 369.364C715.822 365.559 717.555 360.14 718.363 352.992C707.966 356.105 697.106 356.566 686.015 355.874Z" fill="#161826"/>
<path d="M684.628 335.927L714.088 333.621C714.088 333.621 706.579 385.505 697.914 403.377C689.25 421.248 649.392 491.58 664.988 452.378C664.988 452.378 644.771 482.933 662.1 451.802C662.1 451.802 643.038 476.591 659.789 450.073C659.789 450.073 640.149 472.556 660.945 440.849C660.945 440.849 645.348 448.343 662.678 435.66L679.43 391.847L684.628 335.927Z" fill="#965450"/>
<path d="M713.395 337.772C713.858 335.12 714.089 333.506 714.089 333.506L684.628 335.812L684.397 338.81C693.986 338.81 703.691 338.349 713.395 337.772Z" fill="#76413B"/>
<path d="M653.782 203.911C653.782 203.911 668.454 195.379 689.943 209.445C704.153 218.784 703.46 248.647 672.729 268.247C636.222 291.538 653.782 203.911 653.782 203.911Z" fill="#051F38"/>
<path d="M674.116 219.822C674.116 219.822 657.595 207.024 643.5 213.25C625.709 221.321 627.557 240.114 627.21 256.141C626.748 277.471 643.616 281.507 648.699 281.737C656.208 282.198 686.824 280.354 674.116 219.822Z" fill="#965450"/>
<path d="M675.733 239.769C675.733 239.769 676.426 236.54 681.972 239.077C689.019 242.42 685.207 259.254 677.35 258.793C669.379 258.447 675.733 239.769 675.733 239.769Z" fill="#965450"/>
<path d="M675.733 239.769C675.733 239.769 676.657 251.298 674 251.414C671.227 251.529 668.339 230.545 675.964 230.545C683.589 230.775 675.733 239.769 675.733 239.769Z" fill="#051F38"/>
<path d="M675.733 239.769C675.733 239.769 670.072 214.172 636.453 218.438C636.453 218.438 641.305 208.869 651.934 204.372C666.375 198.261 687.979 222.82 681.971 239.077C681.971 239.077 679.199 239.423 675.733 239.769Z" fill="#34CB79"/>
<path d="M689.943 216.132C689.943 216.132 688.094 185.578 695.488 185.578C702.882 185.578 694.91 211.29 694.91 211.29C694.91 211.29 701.034 174.51 718.825 180.044C736.617 185.578 705.886 211.29 705.886 211.29C705.886 211.29 719.98 198.376 724.948 202.758C729.8 207.024 704.73 215.671 704.73 215.671C704.73 215.671 723.793 210.137 726.219 219.361C728.645 228.469 689.365 227.201 689.943 216.132Z" fill="#051F38"/>
<path d="M628.135 233.889C628.135 233.889 628.135 233.658 628.366 233.197C628.597 232.736 628.828 232.159 629.405 231.583C629.983 231.006 630.676 230.315 631.6 229.853C631.831 229.738 632.063 229.623 632.409 229.508C632.64 229.392 632.987 229.277 633.218 229.277C633.564 229.277 633.795 229.162 634.142 229.162H635.066C635.644 229.162 636.222 229.392 636.799 229.623C637.377 229.853 637.839 230.084 638.301 230.43C638.763 230.776 639.11 231.122 639.456 231.468C639.803 231.813 640.034 232.159 640.15 232.505C640.265 232.621 640.381 232.851 640.381 232.966C640.496 233.082 640.496 233.312 640.612 233.428C640.727 233.774 640.843 234.004 640.843 234.235C640.958 234.696 640.958 234.927 640.958 234.927C640.958 234.927 640.727 234.811 640.265 234.696C640.034 234.581 639.803 234.465 639.572 234.35C639.341 234.235 638.994 234.119 638.648 233.889C638.301 233.774 638.07 233.543 637.723 233.428C637.377 233.312 637.03 233.197 636.684 233.082C636.337 232.966 635.991 232.851 635.644 232.736C635.297 232.736 634.951 232.621 634.604 232.621H634.142C634.027 232.621 633.795 232.621 633.564 232.621C633.218 232.621 632.871 232.736 632.525 232.736C632.178 232.851 631.831 232.851 631.485 232.966C631.138 233.082 630.792 233.082 630.445 233.197C629.752 233.428 629.174 233.543 628.828 233.658C628.481 233.889 628.135 233.889 628.135 233.889Z" fill="#051F38"/>
<path d="M637.03 265.595C637.03 265.595 655.977 266.172 657.248 265.941C658.403 265.711 646.619 274.935 637.03 265.595Z" fill="white"/>
<path d="M638.301 244.496C638.301 244.496 638.301 244.726 638.185 245.188C638.07 245.649 637.954 246.225 637.723 247.032C637.608 247.378 637.492 247.839 637.261 248.185C637.146 248.416 637.03 248.647 636.915 248.762C636.799 248.992 636.568 249.223 636.453 249.338C636.106 249.684 635.759 250.145 635.182 250.376C635.066 250.491 634.951 250.491 634.72 250.607L634.373 250.722C634.142 250.837 633.795 250.837 633.449 250.837C632.871 250.837 632.178 250.722 631.716 250.261C631.254 249.915 630.907 249.454 630.676 248.877C630.445 248.416 630.329 247.955 630.214 247.494C630.098 247.032 630.098 246.571 630.098 246.225C630.098 245.418 630.098 244.842 630.214 244.381C630.329 243.919 630.445 243.689 630.445 243.689C630.445 243.689 630.445 244.726 630.792 246.225C630.907 246.917 631.138 247.839 631.6 248.531C631.831 248.877 632.062 249.223 632.409 249.454C632.756 249.684 633.102 249.8 633.449 249.8C633.68 249.8 633.795 249.8 634.026 249.684L634.373 249.569C634.373 249.569 634.489 249.454 634.604 249.454C634.951 249.338 635.297 248.992 635.644 248.762C635.99 248.416 636.221 248.07 636.453 247.724C636.684 247.378 636.915 247.032 637.03 246.686C637.377 245.995 637.608 245.418 637.839 245.072C638.185 244.726 638.301 244.496 638.301 244.496Z" fill="#1F2733"/>
<path d="M657.363 245.995C657.363 245.995 657.364 246.225 657.248 246.686C657.132 247.148 657.017 247.724 656.786 248.531C656.67 248.877 656.555 249.338 656.324 249.684C656.208 249.915 656.093 250.145 655.977 250.261C655.862 250.491 655.631 250.722 655.515 250.837C655.168 251.183 654.822 251.644 654.244 251.875C654.129 251.99 654.013 251.99 653.782 252.106L653.435 252.221C653.204 252.336 652.858 252.336 652.511 252.336C651.934 252.336 651.24 252.221 650.778 251.76C650.316 251.414 649.97 250.953 649.739 250.376C649.507 249.915 649.392 249.454 649.276 248.992C649.161 248.531 649.161 248.07 649.161 247.724C649.161 246.917 649.161 246.341 649.276 245.879C649.392 245.418 649.507 245.188 649.507 245.188C649.507 245.188 649.507 246.225 649.854 247.724C649.97 248.416 650.201 249.338 650.663 250.03C650.894 250.376 651.125 250.722 651.471 250.953C651.818 251.183 652.165 251.298 652.511 251.298C652.742 251.298 652.858 251.298 653.089 251.183L653.435 251.068C653.435 251.068 653.551 250.953 653.667 250.953C654.013 250.837 654.36 250.491 654.706 250.261C655.053 249.915 655.284 249.569 655.515 249.223C655.746 248.877 655.977 248.531 656.093 248.185C656.439 247.494 656.67 246.917 656.901 246.571C657.248 246.225 657.363 245.995 657.363 245.995Z" fill="#1F2733"/>
<path d="M678.39 255.565C678.736 255.103 678.967 254.757 679.199 254.296C679.43 253.835 679.545 253.374 679.661 252.913C679.661 252.682 679.661 252.451 679.661 252.221C679.661 252.106 679.545 251.99 679.545 251.99C679.545 251.875 679.43 251.76 679.314 251.76C679.199 251.644 679.199 251.644 679.083 251.529L678.852 251.298C678.736 251.183 678.621 251.183 678.505 251.183L678.159 251.068L677.928 250.953V250.722C677.581 249.454 677.466 248.301 677.35 247.032C677.235 246.456 677.235 245.764 677.35 245.188C677.35 244.496 677.466 243.919 677.697 243.228C677.812 242.882 678.043 242.536 678.39 242.305C678.736 242.075 679.199 241.844 679.545 241.959C680.007 241.959 680.238 242.075 680.585 242.19C680.931 242.305 681.278 242.421 681.509 242.651C681.74 242.882 682.087 243.112 682.202 243.343C682.433 243.574 682.549 243.919 682.664 244.15C682.896 244.726 683.011 245.418 682.895 245.995C682.78 245.418 682.664 244.842 682.318 244.265C682.202 244.035 681.971 243.804 681.74 243.573C681.509 243.343 681.278 243.228 681.047 243.112C680.816 242.997 680.585 242.882 680.238 242.882C680.007 242.882 679.661 242.766 679.43 242.766C678.967 242.766 678.736 243.112 678.621 243.573C678.274 244.611 678.39 245.764 678.39 246.917C678.505 248.07 678.621 249.338 678.852 250.491L678.621 250.146L678.967 250.376C679.083 250.491 679.199 250.491 679.314 250.607L679.661 250.837C679.776 250.953 679.892 251.068 680.007 251.183C680.123 251.299 680.238 251.414 680.238 251.644C680.354 251.76 680.354 251.99 680.354 252.106C680.469 252.451 680.354 252.682 680.354 253.028C680.238 253.604 679.892 254.066 679.545 254.527C679.199 254.873 678.736 255.334 678.39 255.565Z" fill="#76413B"/>
<path d="M640.034 260.407C639.457 260.522 638.995 260.522 638.532 260.522C638.07 260.522 637.608 260.407 637.262 260.292C636.799 260.176 636.453 259.946 636.106 259.831C635.875 259.715 635.76 259.6 635.529 259.485C635.298 259.369 635.182 259.254 634.951 259.139L634.258 258.562L634.373 258.101C635.529 254.757 636.684 251.529 637.839 248.301C638.995 245.072 640.265 241.729 641.536 238.5C640.728 241.844 639.803 245.303 638.995 248.647C638.07 251.99 637.146 255.334 636.222 258.678L635.76 257.64C635.991 257.64 636.222 257.755 636.453 257.755C636.684 257.755 636.915 257.87 637.031 257.986C637.377 258.101 637.839 258.332 638.186 258.562C638.532 258.793 638.879 259.139 639.226 259.485C639.457 259.6 639.803 259.946 640.034 260.407Z" fill="#76413B"/>
<path d="M646.85 232.505C646.85 232.505 646.966 232.159 647.312 231.813C647.544 231.582 647.659 231.352 648.006 231.006C648.352 230.775 648.583 230.429 649.045 230.199C649.392 229.968 649.854 229.622 650.432 229.392C650.894 229.161 651.472 228.931 652.049 228.7C652.627 228.585 653.32 228.354 654.013 228.354C654.36 228.354 654.706 228.354 655.053 228.354L656.093 228.469C656.786 228.469 657.479 228.815 658.057 228.931C658.634 229.161 659.212 229.507 659.79 229.738C660.367 230.084 660.829 230.429 661.176 230.775C661.638 231.121 661.985 231.582 662.216 231.928C662.562 232.274 662.793 232.62 663.025 232.966C663.256 233.312 663.371 233.658 663.487 233.888C663.718 234.35 663.833 234.695 663.833 234.695C663.833 234.695 663.487 234.58 663.025 234.35C662.793 234.234 662.447 234.119 662.1 233.888C661.754 233.658 661.407 233.542 660.945 233.427C660.598 233.312 660.136 233.081 659.674 232.851C659.212 232.735 658.75 232.505 658.288 232.389C657.826 232.274 657.364 232.159 656.901 232.044C656.439 232.044 655.977 231.813 655.4 231.813L654.706 231.698H654.013C653.551 231.698 652.973 231.698 652.511 231.698C652.049 231.698 651.587 231.698 651.125 231.813C650.663 231.813 650.201 231.928 649.739 231.928C648.93 232.044 648.121 232.159 647.659 232.274C647.197 232.505 646.85 232.505 646.85 232.505Z" fill="#051F38"/>
<path d="M630.907 626.825C630.907 630.976 627.557 634.435 623.398 634.55C619.239 634.55 615.773 631.207 615.657 627.056L615.311 602.613C615.311 598.462 618.661 595.003 622.82 594.888C626.979 594.888 630.445 598.231 630.56 602.382L630.907 626.825Z" fill="#091E1D"/>
<path d="M524.504 628.095C524.504 632.245 521.154 635.704 516.995 635.82C512.836 635.82 509.37 632.476 509.254 628.325L508.908 603.882C508.908 599.731 512.258 596.272 516.417 596.157C520.576 596.157 524.042 599.501 524.158 603.651L524.504 628.095Z" fill="#091E1D"/>
<path d="M622.358 609.415C622.474 618.87 614.849 626.595 605.375 626.71L534.209 627.517C524.735 627.633 516.995 620.023 516.879 610.568L509.254 448.92C509.139 439.466 516.764 431.741 526.237 431.625L608.841 430.588C618.315 430.472 626.055 438.082 626.171 447.536L622.358 609.415Z" fill="#34CB79"/>
<path opacity="0.1" d="M625.708 463.793L626.055 447.767C625.939 438.313 618.199 430.703 608.725 430.818L526.122 431.856C516.648 431.971 509.023 439.696 509.139 449.151L509.947 465.177L625.708 463.793Z" fill="#161826"/>
<path d="M639.803 443.732C639.803 446.383 637.723 448.459 635.066 448.574L500.128 450.188C497.47 450.188 495.391 448.113 495.275 445.461L495.044 428.397C495.044 425.745 497.124 423.67 499.781 423.554L634.72 421.94C637.377 421.94 639.456 424.016 639.572 426.667L639.803 443.732Z" fill="#34CB79"/>
<path d="M568.175 491.119L583.887 481.665L580.074 491.465L568.175 491.119Z" fill="white"/>
<path d="M562.282 476.246C562.282 476.246 563.553 476.246 565.517 479.243C567.481 482.241 571.871 490.312 571.871 490.312L579.843 486.738L581.691 483.625C581.691 483.625 578.226 476.707 575.453 476.246H562.282Z" fill="white"/>
<path d="M557.892 478.321C557.892 478.321 560.318 475.669 562.282 477.053C564.246 478.437 567.712 484.202 567.712 484.202L562.051 494.117L551.885 488.468L557.892 478.321Z" fill="white"/>
<path d="M575.338 503.456L576.146 521.673L569.33 513.718L575.338 503.456Z" fill="white"/>
<path d="M591.281 505.301C591.281 505.301 590.703 506.454 587.121 506.8C583.54 507.146 574.298 507.146 574.298 507.146L573.604 515.908L575.453 519.021C575.453 519.021 583.193 519.367 584.926 517.061L591.281 505.301Z" fill="white"/>
<path d="M591.396 500.458C591.396 500.458 592.667 503.802 590.472 504.955C588.392 505.993 581.576 506.223 581.576 506.223L575.453 496.538L585.273 490.197L591.396 500.458Z" fill="white"/>
<path d="M561.472 503.226L545.298 494.693L555.696 492.849L561.472 503.226Z" fill="white"/>
<path d="M551.885 516.024C551.885 516.024 551.192 514.986 552.694 511.758C554.195 508.529 558.817 500.574 558.817 500.574L551.654 495.616L548.072 495.731C548.072 495.731 543.913 502.303 544.953 504.84L551.885 516.024Z" fill="white"/>
<path d="M555.928 518.56C555.928 518.56 552.347 517.868 552.578 515.562C552.693 513.141 555.928 507.261 555.928 507.261L567.366 506.915L567.828 518.56H555.928Z" fill="white"/>
<path d="M320.247 581.167C320.247 581.167 317.706 621.868 315.511 622.675C307.077 625.557 243.42 641.699 303.611 614.604L301.994 584.972L320.247 581.167Z" fill="#051F38"/>
<path d="M317.59 612.759C319.092 600.422 320.247 581.167 320.247 581.167L301.994 584.972L303.496 611.376C308.001 612.644 313.2 612.759 317.59 612.759Z" fill="#041523"/>
<path d="M278.079 628.786C276.231 633.282 309.503 624.75 315.511 622.675C315.626 622.56 315.857 622.329 316.088 621.752C308.579 623.828 285.82 629.016 278.079 628.786Z" fill="white"/>
<path d="M359.181 578.977C359.181 578.977 362.531 619.677 364.842 620.369C373.391 623.136 437.279 638.01 376.51 612.067L377.55 582.436L359.181 578.977Z" fill="#051F38"/>
<path d="M362.531 610.453C360.798 598.232 359.181 578.977 359.181 578.977L377.55 582.436L376.626 608.839C372.12 610.223 366.921 610.338 362.531 610.453Z" fill="#041523"/>
<path d="M402.389 625.788C404.353 630.284 370.849 622.329 364.842 620.369C364.611 620.369 364.495 620.023 364.264 619.446C371.774 621.522 394.648 626.249 402.389 625.788Z" fill="white"/>
<path d="M370.387 359.218C370.387 359.218 387.024 493.31 383.673 601.806C383.673 601.806 363.802 607.34 358.603 603.305C354.098 577.593 354.675 527.554 347.975 490.427C341.62 455.377 339.079 426.667 339.079 426.667L336.999 424.361C336.999 424.361 323.367 593.85 320.363 606.764C303.149 610.799 297.719 606.072 297.719 606.072C297.719 606.072 289.863 394.038 294.715 359.794C300.954 315.059 370.387 359.218 370.387 359.218Z" fill="#34CB79"/>
<path opacity="0.1" d="M373.39 387.004C371.657 369.709 370.271 359.333 370.271 359.333C370.271 359.333 300.953 315.173 294.599 359.909C294.021 364.06 293.674 370.862 293.328 379.51C298.527 382.392 363.454 391.616 373.39 387.004Z" fill="#161826"/>
<path opacity="0.1" d="M337.808 422.978C338.617 432.086 342.776 461.488 347.975 490.427C354.675 527.669 354.098 577.593 358.603 603.305C363.802 607.34 383.673 601.806 383.673 601.806C385.637 535.048 380.208 458.605 375.586 409.719C364.611 416.636 350.632 419.98 337.808 422.978Z" fill="#161826"/>
<path d="M343.7 241.959C343.816 227.893 344.855 209.33 344.855 209.33L317.128 201.72C317.128 201.72 318.052 226.855 318.861 242.19C306.268 246.456 291.943 254.527 291.943 254.527L344.278 267.786L362.878 249.8C362.878 249.8 353.52 245.072 343.7 241.959Z" fill="#FFB39F"/>
<path d="M343.7 241.959C343.815 227.893 344.855 209.33 344.855 209.33L317.128 201.72C317.128 201.72 318.052 226.855 318.861 242.19C306.268 246.456 291.943 254.527 291.943 254.527L344.278 267.786L369.001 246.571C369.001 246.571 353.636 240.806 343.7 241.959Z" fill="#E09B8D"/>
<path d="M314.702 175.086C314.702 175.086 321.98 151.565 341.158 155.255C360.336 158.944 363.109 183.964 365.535 200.798C367.961 217.747 362.531 232.966 347.513 234.811C334.458 236.425 311.698 233.888 314.702 175.086Z" fill="#FFB39F"/>
<path d="M315.626 194.802C315.626 194.802 314.471 191.689 309.734 195.148C303.727 199.529 309.85 215.671 317.128 213.942C324.407 212.212 315.626 194.802 315.626 194.802Z" fill="#FFB39F"/>
<path d="M308.926 161.596C309.388 161.481 318.399 160.789 312.391 161.366C317.937 167.361 317.359 168.86 324.984 170.244C329.028 182.696 321.056 190.19 321.056 190.19L323.251 205.179L317.475 205.756C317.475 205.756 317.59 195.379 313.2 194.456C308.81 193.534 307.539 198.838 307.539 198.838C298.412 187.308 289.17 164.709 308.926 161.596Z" fill="#051F38"/>
<path d="M361.261 153.179C364.958 144.071 358.719 136 358.719 136C359.759 139.344 359.297 142.457 358.257 144.993C357.564 142.457 356.293 139.69 353.982 136.922C353.982 136.922 354.675 146.146 342.083 144.993C329.49 143.84 307.424 145.57 306.5 165.055C305.46 184.541 324.291 170.359 324.291 170.359C324.291 170.359 361.838 180.851 367.268 150.643L361.261 153.179Z" fill="#051F38"/>
<path d="M343.469 186.848C343.469 186.848 343.122 186.848 342.66 186.732C342.082 186.617 341.389 186.502 340.581 186.386C340.118 186.271 339.772 186.271 339.31 186.271C338.848 186.156 338.386 186.156 337.923 186.156C337.461 186.156 336.999 186.156 336.421 186.156C336.19 186.156 335.959 186.156 335.728 186.156L335.035 186.271C334.573 186.271 334.111 186.386 333.533 186.502C333.071 186.617 332.609 186.732 332.147 186.848C331.685 186.963 331.223 187.193 330.761 187.309C330.298 187.424 329.952 187.655 329.49 187.77C329.143 187.885 328.681 188.001 328.45 188.231C328.103 188.346 327.872 188.462 327.641 188.577C327.179 188.808 326.833 188.923 326.833 188.923C326.833 188.923 326.948 188.577 327.179 188.116C327.295 187.885 327.41 187.539 327.641 187.193C327.872 186.848 328.103 186.502 328.45 186.156C328.797 185.81 329.028 185.349 329.49 185.003C329.952 184.657 330.414 184.311 330.992 183.965C331.569 183.735 332.147 183.389 332.725 183.158C333.418 182.927 333.995 182.812 334.689 182.697L335.728 182.582C336.075 182.582 336.421 182.582 336.768 182.697C337.115 182.697 337.461 182.812 337.692 182.812C338.039 182.927 338.27 182.927 338.617 183.043C339.194 183.273 339.772 183.389 340.234 183.735C340.696 183.965 341.158 184.311 341.62 184.542C341.967 184.772 342.314 185.118 342.66 185.349C342.891 185.579 343.122 185.925 343.353 186.04C343.238 186.502 343.469 186.848 343.469 186.848Z" fill="#051F38"/>
<path d="M362.993 186.27C362.993 186.27 362.762 186.155 362.3 186.04C361.838 185.924 361.26 185.694 360.683 185.463C360.336 185.348 359.99 185.232 359.643 185.117C359.296 185.002 358.95 184.887 358.603 184.887C358.257 184.887 357.91 184.771 357.564 184.656C357.448 184.656 357.217 184.656 357.101 184.541H356.639C356.293 184.425 355.946 184.656 355.6 184.541C355.253 184.656 354.906 184.656 354.56 184.771C354.213 184.887 353.867 185.002 353.52 185.117C353.173 185.232 352.827 185.348 352.596 185.463C352.249 185.578 351.903 185.694 351.672 185.809C351.44 185.924 351.209 186.04 350.978 186.04C350.516 186.155 350.285 186.27 350.285 186.27C350.285 186.27 350.285 186.04 350.516 185.578C350.632 185.348 350.632 185.117 350.863 184.771C350.978 184.425 351.209 184.195 351.44 183.849C351.672 183.503 351.903 183.157 352.249 182.811C352.596 182.465 353.058 182.235 353.404 181.889C353.867 181.658 354.444 181.428 354.906 181.197C355.484 181.082 356.062 180.966 356.639 180.966C356.986 180.966 357.217 180.966 357.564 180.966C357.91 180.966 358.141 181.082 358.372 181.197C358.603 181.197 358.95 181.312 359.181 181.428C359.412 181.543 359.643 181.658 359.874 181.773C360.798 182.35 361.492 182.926 361.954 183.618C362.416 184.31 362.647 184.887 362.878 185.348C362.993 186.04 362.993 186.27 362.993 186.27Z" fill="#051F38"/>
<path d="M348.783 187.538C349.476 189.037 350.17 190.651 350.863 192.15C351.209 192.957 351.44 193.649 351.787 194.456L352.711 196.762L353.635 199.068C353.982 199.875 354.213 200.567 354.56 201.374L355.022 202.527C355.137 202.873 355.368 203.334 355.484 203.68C355.831 204.372 356.177 205.064 356.524 205.871L356.87 206.793L356.177 207.139C355.137 207.6 354.098 208.177 352.942 208.638C351.903 209.099 350.747 209.56 349.592 209.906C350.516 209.099 351.44 208.407 352.365 207.716C353.289 207.024 354.329 206.332 355.253 205.64L354.906 206.909C354.444 206.217 353.982 205.41 353.52 204.718C353.058 204.026 352.711 203.219 352.365 202.412L351.787 201.259L351.325 200.106C351.094 199.299 350.747 198.492 350.516 197.685L349.823 195.263C349.592 194.456 349.476 193.649 349.245 192.842C349.13 190.997 348.899 189.268 348.783 187.538Z" fill="#DD9078"/>
<path d="M315.28 210.598C314.817 210.368 314.355 210.022 314.009 209.56C313.662 209.215 313.2 208.753 312.969 208.177C312.853 207.946 312.738 207.6 312.738 207.254C312.738 207.139 312.738 206.909 312.738 206.793C312.738 206.678 312.853 206.447 312.853 206.332C312.969 205.986 313.2 205.756 313.431 205.525C313.547 205.41 313.662 205.294 313.778 205.179L314.124 204.948L313.893 205.294C313.893 204.026 313.893 202.758 313.778 201.605C313.662 200.337 313.547 199.068 313.085 198.031C312.969 197.8 312.853 197.569 312.622 197.454C312.507 197.339 312.276 197.224 312.045 197.224C311.929 197.224 311.814 197.223 311.698 197.339C311.583 197.339 311.352 197.454 311.236 197.454C311.005 197.569 310.774 197.685 310.543 197.915C310.312 198.146 310.081 198.261 309.965 198.492C309.85 198.722 309.619 198.953 309.503 199.299C309.272 199.875 309.157 200.452 309.157 201.144C308.925 200.567 308.925 199.875 309.041 199.184C309.041 198.838 309.156 198.492 309.388 198.261C309.503 197.915 309.734 197.685 309.965 197.454L310.312 197.108L310.774 196.762C310.889 196.647 311.121 196.647 311.236 196.532C311.352 196.416 311.583 196.416 311.814 196.301C312.276 196.186 312.738 196.301 313.085 196.647C313.431 196.878 313.662 197.223 313.778 197.569C314.124 198.261 314.24 198.838 314.471 199.529C314.586 200.221 314.702 200.798 314.702 201.49C314.817 202.758 314.817 204.026 314.702 205.41V205.64L314.471 205.756C314.24 205.871 314.009 205.986 313.893 206.217C313.778 206.332 313.547 206.563 313.431 206.678C313.316 206.793 313.316 206.909 313.316 207.024C313.316 207.139 313.2 207.254 313.2 207.37C313.2 207.6 313.2 207.831 313.2 208.062C313.316 208.523 313.547 208.984 313.893 209.445C314.586 209.906 314.933 210.252 315.28 210.598Z" fill="#DD9078"/>
<path d="M333.418 197.8C333.418 197.8 333.533 198.031 333.649 198.492C333.764 198.722 333.764 198.953 333.88 199.184C333.995 199.414 334.111 199.76 334.342 200.106C334.457 200.452 334.804 200.682 334.92 201.028C335.035 201.144 335.151 201.259 335.382 201.49C335.497 201.605 335.613 201.72 335.844 201.835C336.19 202.066 336.537 202.181 336.884 202.297C337.115 202.297 337.23 202.412 337.461 202.412C337.692 202.412 337.808 202.412 338.039 202.297L338.617 202.066L339.194 201.72C339.541 201.489 339.772 201.144 340.003 200.798C340.234 200.452 340.35 200.106 340.581 199.76C340.696 199.414 340.812 199.068 340.812 198.607C340.812 198.261 340.812 197.915 340.927 197.685C340.927 197.339 340.927 197.108 340.927 196.878C340.927 196.416 340.927 196.186 340.927 196.186C340.927 196.186 341.043 196.416 341.158 196.878C341.274 197.108 341.274 197.339 341.389 197.685C341.389 198.031 341.505 198.376 341.505 198.722C341.505 199.068 341.505 199.529 341.389 199.991C341.274 200.452 341.158 200.913 340.927 201.374C340.696 201.835 340.35 202.297 339.887 202.642L339.194 203.104C338.963 203.219 338.617 203.334 338.386 203.45C338.154 203.45 337.808 203.565 337.461 203.565C337.23 203.565 336.884 203.45 336.653 203.45C336.075 203.334 335.613 202.988 335.151 202.642C334.689 202.297 334.457 201.835 334.226 201.49C333.995 201.028 333.764 200.682 333.649 200.337C333.533 199.991 333.418 199.645 333.418 199.299C333.418 198.953 333.418 198.722 333.418 198.492C333.418 198.031 333.418 197.8 333.418 197.8Z" fill="#1F2733"/>
<path d="M354.329 194.341C354.329 194.341 354.444 194.572 354.56 195.033C354.675 195.263 354.675 195.494 354.791 195.725C354.906 195.955 355.022 196.301 355.253 196.647C355.368 196.993 355.715 197.223 355.831 197.569C355.946 197.685 356.062 197.8 356.293 198.031C356.408 198.146 356.524 198.261 356.755 198.376C357.101 198.607 357.448 198.722 357.795 198.838C358.026 198.838 358.141 198.953 358.372 198.953C358.603 198.953 358.719 198.953 358.95 198.838L359.527 198.607L360.105 198.261C360.452 198.031 360.683 197.685 360.914 197.339C361.145 196.993 361.26 196.647 361.491 196.301C361.607 195.955 361.723 195.609 361.723 195.148C361.723 194.802 361.723 194.456 361.838 194.226C361.838 193.88 361.838 193.649 361.838 193.419C361.838 192.957 361.838 192.727 361.838 192.727C361.838 192.727 361.954 192.957 362.069 193.419C362.185 193.649 362.185 193.88 362.3 194.226C362.3 194.572 362.416 194.918 362.416 195.263C362.416 195.609 362.416 196.071 362.3 196.532C362.185 196.993 362.069 197.454 361.838 197.915C361.607 198.376 361.26 198.838 360.798 199.184L360.105 199.645C359.874 199.76 359.527 199.875 359.296 199.991C359.065 199.991 358.719 200.106 358.372 200.106C358.141 200.106 357.795 199.991 357.563 199.991C356.986 199.875 356.524 199.529 356.062 199.184C355.599 198.838 355.368 198.376 355.137 198.031C354.906 197.569 354.675 197.223 354.56 196.878C354.444 196.532 354.329 196.186 354.329 195.84C354.329 195.494 354.329 195.263 354.329 195.033C354.329 194.572 354.329 194.341 354.329 194.341Z" fill="#1F2733"/>
<path d="M335.238 214.103C335.238 214.103 335.122 214.103 335.238 214.219C335.353 214.334 335.584 214.449 335.815 214.565C336.277 214.91 337.086 215.256 338.01 215.718C338.935 216.179 340.09 216.64 341.245 216.986C341.823 217.216 342.516 217.332 343.094 217.447C343.671 217.562 344.364 217.678 345.058 217.793C346.328 217.908 347.599 218.024 348.87 217.908C350.141 217.793 351.181 217.562 352.22 217.216C353.145 216.871 353.953 216.64 354.531 216.409C355.109 216.179 355.455 216.063 355.455 216.063C355.455 216.063 355.224 216.409 354.762 216.755C354.3 217.216 353.607 217.793 352.683 218.369C351.758 218.946 350.488 219.522 349.101 219.753C347.715 220.099 346.213 220.099 344.711 219.984C344.018 219.868 343.209 219.753 342.516 219.522C341.823 219.292 341.13 219.061 340.552 218.715C339.281 218.139 338.241 217.447 337.433 216.755C336.624 216.063 335.931 215.372 335.584 214.795C335.353 214.565 335.238 214.334 335.238 214.103C335.122 214.219 335.122 214.103 335.238 214.103Z" fill="#DD9078"/>
<path d="M353.289 241.613C353.289 241.613 382.865 238.5 386.677 261.099C390.49 283.813 390.143 289.923 390.143 289.923L361.261 285.657L353.289 241.613Z" fill="#6633CC"/>
<path d="M378.242 259.83C376.509 245.417 361.837 242.304 353.288 241.612C349.476 246.916 344.161 250.721 336.883 250.952C328.565 251.182 320.94 248.3 316.896 241.958C303.957 243.457 291.133 247.147 288.245 255.909C282.122 274.357 287.436 375.82 287.436 375.82C287.436 375.82 339.193 384.698 381.708 376.627C381.593 376.742 380.553 279.084 378.242 259.83Z" fill="#6633CC"/>
<path opacity="0.2" d="M285.242 305.258C285.473 338.695 287.437 375.936 287.437 375.936C287.437 375.936 339.194 384.814 381.709 376.743C381.709 376.743 380.901 302.606 379.168 270.784C347.859 282.429 316.551 293.959 285.242 305.258Z" fill="#352C38"/>
<path d="M317.128 332.007C317.128 332.007 315.972 328.664 321.287 326.473C326.601 324.282 381.362 309.985 384.828 310.447C388.294 310.908 430.693 315.981 431.387 318.287C432.08 320.593 380.669 337.196 380.669 337.196L317.128 332.007Z" fill="#E1EDFF"/>
<path d="M383.558 341.577C383.558 341.577 323.598 341.347 318.977 335.928C314.355 330.509 314.24 326.588 340.465 331.2C366.69 335.812 381.825 335.12 381.825 335.12C381.825 335.12 429.885 312.753 431.503 318.172C433.005 323.706 438.088 322.322 383.558 341.577Z" fill="#C0D5FF"/>
<path d="M431.387 318.287C429.885 312.868 381.709 335.236 381.709 335.236C381.709 335.236 381.594 335.236 381.247 335.236C382.287 337.311 383.096 339.271 384.02 341.462C438.088 322.322 433.005 323.706 431.387 318.287Z" fill="#B1C5E8"/>
<path d="M315.394 319.67C315.394 319.67 314.239 316.327 319.553 314.136C324.868 311.945 379.629 297.648 383.095 298.11C386.561 298.571 428.96 303.644 429.653 305.95C430.347 308.256 378.936 324.859 378.936 324.859L315.394 319.67Z" fill="#E1EDFF"/>
<path d="M381.825 329.356C381.825 329.356 321.865 329.125 317.244 323.706C312.622 318.287 312.507 314.367 338.732 318.979C364.957 323.591 380.092 322.899 380.092 322.899C380.092 322.899 428.152 300.531 429.77 305.95C431.156 311.369 436.355 309.985 381.825 329.356Z" fill="#C0D5FF"/>
<path d="M429.654 306.065C428.152 300.646 379.977 323.014 379.977 323.014C379.977 323.014 379.861 323.014 379.514 323.014C380.554 325.09 381.363 327.05 382.287 329.24C436.24 309.985 431.156 311.369 429.654 306.065Z" fill="#B1C5E8"/>
<path d="M315.164 309.639C315.164 309.639 314.124 306.757 319.207 304.797C324.291 302.837 377.319 290.269 380.669 290.73C384.02 291.192 425.033 295.688 425.726 297.648C426.419 299.608 376.626 314.367 376.626 314.367L315.164 309.639Z" fill="#E1EDFF"/>
<path d="M379.399 318.172C379.399 318.172 321.403 317.941 316.897 313.214C312.392 308.486 312.392 305.027 337.693 309.063C362.994 313.098 377.666 312.522 377.666 312.522C377.666 312.522 424.224 292.806 425.726 297.648C427.228 302.376 432.196 301.107 379.399 318.172Z" fill="#C0D5FF"/>
<path d="M425.726 297.648C424.224 292.921 377.666 312.522 377.666 312.522C377.666 312.522 377.55 312.522 377.204 312.522C378.128 314.251 379.052 316.096 379.861 317.941C432.196 301.107 427.228 302.376 425.726 297.648Z" fill="#B1C5E8"/>
<path d="M316.781 296.15C316.781 296.15 315.857 293.267 321.056 291.422C326.255 289.693 379.629 279.085 382.98 279.662C386.33 280.123 427.112 286.234 427.69 288.194C428.267 290.154 378.012 302.952 378.012 302.952L316.781 296.15Z" fill="white"/>
<path d="M380.67 307.102C380.67 307.102 322.674 304.681 318.399 299.838C314.124 294.88 314.124 291.537 339.31 296.494C364.495 301.452 379.168 301.452 379.168 301.452C379.168 301.452 426.419 283.581 427.69 288.308C429.077 293.035 434.044 291.998 380.67 307.102Z" fill="#C0D5FF"/>
<path d="M427.69 288.309C426.419 283.467 379.168 301.453 379.168 301.453C379.168 301.453 379.052 301.453 378.706 301.453C379.63 303.298 380.439 305.143 381.132 306.988C433.929 291.999 428.961 293.036 427.69 288.309Z" fill="#B1C5E8"/>
<path d="M286.628 298.34L315.164 291.422C315.164 291.422 321.287 332.93 322.905 335.236C324.522 337.542 372.236 339.848 372.236 339.848L386.1 340.655C386.1 340.655 327.526 365.213 310.659 355.298C293.56 345.151 286.628 298.34 286.628 298.34Z" fill="#FFB39F"/>
<path d="M289.401 303.298C298.181 300.646 306.731 297.418 315.742 295.458C315.395 292.921 315.164 291.422 315.164 291.422L286.628 298.34C286.628 298.34 286.975 300.416 287.553 303.875C288.246 303.644 288.823 303.413 289.401 303.298Z" fill="#E09B8D"/>
<path d="M380.785 344.46C380.785 344.46 402.505 338.695 402.505 334.313C402.505 329.932 394.649 314.136 400.194 335.236C400.194 335.236 388.641 306.642 397.884 336.619C397.884 336.619 388.872 313.329 394.995 337.196C394.995 337.196 385.753 321.054 392.454 338.349L384.136 341.462L364.149 341.231L353.52 351.608L380.785 344.46Z" fill="#FFB39F"/>
<path d="M431.618 323.36C431.618 323.36 420.065 294.766 429.308 324.744C429.308 324.744 420.297 301.453 426.42 325.32C426.42 325.32 417.177 309.178 423.069 326.588L416.715 329.586C419.026 329.817 422.029 329.701 424.456 328.894C431.849 327.395 433.929 324.859 433.929 322.553C433.929 318.172 426.073 302.376 431.618 323.36Z" fill="#FFB39F"/>
<path d="M461.078 626.825C461.078 630.976 457.728 634.435 453.569 634.55C449.41 634.55 445.944 631.207 445.828 627.056L445.482 602.613C445.482 598.462 448.832 595.003 452.991 594.888C457.15 594.888 460.616 598.231 460.732 602.382L461.078 626.825Z" fill="#091E1D"/>
<path d="M354.675 628.095C354.675 632.245 351.325 635.704 347.166 635.82C343.007 635.82 339.541 632.476 339.425 628.325L339.079 603.882C339.079 599.731 342.429 596.272 346.588 596.157C350.747 596.157 354.213 599.501 354.329 603.651L354.675 628.095Z" fill="#091E1D"/>
<path d="M452.529 609.415C452.645 618.87 445.02 626.595 435.546 626.71L364.38 627.517C354.906 627.633 347.166 620.023 347.05 610.568L339.425 448.92C339.31 439.466 346.935 431.741 356.408 431.625L439.012 430.588C448.485 430.472 456.226 438.082 456.342 447.536L452.529 609.415Z" fill="#322153"/>
<path d="M455.879 463.793L456.226 447.767C456.111 438.313 448.37 430.703 438.897 430.818L356.293 431.856C346.819 431.971 339.194 439.696 339.31 449.151L340.119 465.177L455.879 463.793Z" fill="#1C0C3B"/>
<path d="M469.974 443.732C469.974 446.383 467.895 448.459 465.237 448.574L330.299 450.188C327.641 450.188 325.562 448.113 325.446 445.461L325.215 428.397C325.215 425.745 327.295 423.67 329.952 423.554L464.891 421.94C467.548 421.94 469.628 424.016 469.743 426.667L469.974 443.732Z" fill="#322153"/>
<path d="M398.345 491.119L414.057 481.665L410.245 491.465L398.345 491.119Z" fill="white"/>
<path d="M392.454 476.246C392.454 476.246 393.724 476.246 395.688 479.243C397.652 482.241 402.043 490.312 402.043 490.312L410.014 486.738L411.863 483.625C411.863 483.625 408.397 476.707 405.624 476.246H392.454Z" fill="white"/>
<path d="M388.063 478.321C388.063 478.321 390.49 475.669 392.454 477.053C394.418 478.437 397.883 484.202 397.883 484.202L392.223 494.117L382.056 488.468L388.063 478.321Z" fill="white"/>
<path d="M405.509 503.456L406.317 521.673L399.501 513.718L405.509 503.456Z" fill="white"/>
<path d="M421.452 505.301C421.452 505.301 420.874 506.454 417.293 506.8C413.711 507.146 404.469 507.146 404.469 507.146L403.776 515.908L405.624 519.022C405.624 519.022 413.365 519.367 415.098 517.061L421.452 505.301Z" fill="white"/>
<path d="M421.567 500.458C421.567 500.458 422.838 503.802 420.643 504.955C418.563 505.993 411.747 506.223 411.747 506.223L405.624 496.538L415.444 490.197L421.567 500.458Z" fill="white"/>
<path d="M391.76 503.226L375.585 494.694L385.868 492.849L391.76 503.226Z" fill="white"/>
<path d="M382.056 516.024C382.056 516.024 381.363 514.986 382.865 511.758C384.367 508.529 388.988 500.574 388.988 500.574L381.825 495.616L378.243 495.731C378.243 495.731 374.084 502.303 375.124 504.84L382.056 516.024Z" fill="white"/>
<path d="M386.215 518.56C386.215 518.56 382.634 517.868 382.865 515.562C382.98 513.141 386.215 507.261 386.215 507.261L397.653 506.915L398.115 518.56H386.215Z" fill="white"/>
<g clip-path="url(#clip0)">
<path d="M196.364 92.2691V31.7891H237.207V43.2218H209.978V55.0909H234.153V66.2618H209.978V80.8364H239.214V92.2691H196.364Z" fill="#322153"/>
<path d="M245.212 69.3164C245.212 66 245.736 62.8873 246.783 59.9782C247.889 57.0109 249.46 54.4509 251.496 52.2982C253.532 50.0873 256.005 48.3418 258.914 47.0618C261.823 45.7818 265.14 45.1418 268.863 45.1418C271.307 45.1418 273.547 45.3745 275.583 45.84C277.62 46.2473 279.598 46.8582 281.518 47.6727L278.812 58.0582C277.591 57.5927 276.252 57.1855 274.798 56.8364C273.343 56.4873 271.714 56.3127 269.911 56.3127C266.071 56.3127 263.191 57.5055 261.271 59.8909C259.409 62.2764 258.478 65.4182 258.478 69.3164C258.478 73.4473 259.351 76.6473 261.096 78.9164C262.9 81.1855 266.012 82.32 270.434 82.32C272.005 82.32 273.692 82.1745 275.496 81.8836C277.3 81.5927 278.958 81.1273 280.471 80.4873L282.303 91.1345C280.791 91.7745 278.9 92.3273 276.631 92.7927C274.361 93.2582 271.86 93.4909 269.125 93.4909C264.936 93.4909 261.329 92.88 258.303 91.6582C255.278 90.3782 252.776 88.6618 250.798 86.5091C248.878 84.3564 247.452 81.8255 246.521 78.9164C245.649 75.9491 245.212 72.7491 245.212 69.3164Z" fill="#322153"/>
<path d="M331.753 69.2291C331.753 72.8364 331.229 76.1527 330.182 79.1782C329.135 82.1455 327.622 84.7055 325.644 86.8582C323.666 88.9527 321.28 90.5818 318.487 91.7455C315.753 92.9091 312.669 93.4909 309.236 93.4909C305.862 93.4909 302.778 92.9091 299.986 91.7455C297.251 90.5818 294.895 88.9527 292.916 86.8582C290.938 84.7055 289.396 82.1455 288.291 79.1782C287.186 76.1527 286.633 72.8364 286.633 69.2291C286.633 65.6218 287.186 62.3345 288.291 59.3673C289.455 56.4 291.026 53.8691 293.004 51.7745C295.04 49.68 297.426 48.0509 300.16 46.8873C302.953 45.7236 305.978 45.1418 309.236 45.1418C312.553 45.1418 315.578 45.7236 318.313 46.8873C321.106 48.0509 323.491 49.68 325.469 51.7745C327.447 53.8691 328.989 56.4 330.095 59.3673C331.2 62.3345 331.753 65.6218 331.753 69.2291ZM318.487 69.2291C318.487 65.2145 317.673 62.0727 316.044 59.8036C314.473 57.4764 312.204 56.3127 309.236 56.3127C306.269 56.3127 303.971 57.4764 302.342 59.8036C300.713 62.0727 299.898 65.2145 299.898 69.2291C299.898 73.2436 300.713 76.4436 302.342 78.8291C303.971 81.1564 306.269 82.32 309.236 82.32C312.204 82.32 314.473 81.1564 316.044 78.8291C317.673 76.4436 318.487 73.2436 318.487 69.2291Z" fill="#322153"/>
<path d="M360.153 93.1418C356.371 93.0836 353.288 92.6764 350.902 91.92C348.575 91.1636 346.713 90.1164 345.317 88.7782C343.979 87.3818 343.048 85.7236 342.524 83.8036C342.059 81.8255 341.826 79.6146 341.826 77.1709V26.64L354.83 24.5455V74.5527C354.83 75.7164 354.917 76.7636 355.091 77.6945C355.266 78.6255 355.586 79.4109 356.051 80.0509C356.575 80.6909 357.302 81.2146 358.233 81.6218C359.164 82.0291 360.415 82.2909 361.986 82.4073L360.153 93.1418Z" fill="#322153"/>
<path d="M367.258 69.6655C367.258 65.5927 367.869 62.0436 369.091 59.0182C370.371 55.9345 372.029 53.3745 374.065 51.3382C376.101 49.3018 378.429 47.76 381.047 46.7127C383.723 45.6655 386.458 45.1418 389.251 45.1418C395.767 45.1418 400.916 47.1491 404.698 51.1636C408.48 55.12 410.371 60.9673 410.371 68.7055C410.371 69.4618 410.341 70.3055 410.283 71.2364C410.225 72.1091 410.167 72.8946 410.109 73.5927H380.611C380.901 76.2691 382.152 78.3927 384.363 79.9636C386.574 81.5345 389.541 82.32 393.265 82.32C395.651 82.32 397.978 82.1164 400.247 81.7091C402.574 81.2436 404.465 80.6909 405.92 80.0509L407.665 90.6109C406.967 90.96 406.036 91.3091 404.872 91.6582C403.709 92.0073 402.4 92.2982 400.945 92.5309C399.549 92.8218 398.036 93.0545 396.407 93.2291C394.778 93.4036 393.149 93.4909 391.52 93.4909C387.389 93.4909 383.781 92.88 380.698 91.6582C377.672 90.4364 375.142 88.7782 373.105 86.6836C371.127 84.5309 369.643 82 368.654 79.0909C367.723 76.1818 367.258 73.04 367.258 69.6655ZM397.803 64.6909C397.745 63.5855 397.542 62.5091 397.192 61.4618C396.902 60.4145 396.407 59.4836 395.709 58.6691C395.069 57.8545 394.225 57.1855 393.178 56.6618C392.189 56.1382 390.938 55.8764 389.425 55.8764C387.971 55.8764 386.72 56.1382 385.672 56.6618C384.625 57.1273 383.752 57.7673 383.054 58.5818C382.356 59.3964 381.803 60.3564 381.396 61.4618C381.047 62.5091 380.785 63.5855 380.611 64.6909H397.803Z" fill="#322153"/>
<path d="M419.969 34.9309L432.973 32.8364V46.3636H448.595V57.1855H432.973V73.3309C432.973 76.0655 433.438 78.2473 434.369 79.8764C435.358 81.5055 437.307 82.32 440.217 82.32C441.613 82.32 443.038 82.2036 444.493 81.9709C446.006 81.68 447.373 81.3018 448.595 80.8364L450.427 90.96C448.857 91.6 447.111 92.1527 445.191 92.6182C443.271 93.0836 440.915 93.3164 438.122 93.3164C434.573 93.3164 431.635 92.8509 429.307 91.92C426.98 90.9309 425.118 89.5927 423.722 87.9055C422.326 86.16 421.336 84.0655 420.755 81.6218C420.231 79.1782 419.969 76.4727 419.969 73.5055V34.9309Z" fill="#322153"/>
<path d="M475.021 83.1927C476.301 83.1927 477.523 83.1636 478.687 83.1055C479.85 83.0473 480.781 82.96 481.479 82.8436V72.9818C480.956 72.8655 480.17 72.7491 479.123 72.6327C478.076 72.5164 477.116 72.4582 476.243 72.4582C475.021 72.4582 473.858 72.5455 472.752 72.72C471.705 72.8364 470.774 73.0982 469.959 73.5055C469.145 73.9127 468.505 74.4655 468.039 75.1636C467.574 75.8618 467.341 76.7345 467.341 77.7818C467.341 79.8182 468.01 81.2436 469.349 82.0582C470.745 82.8146 472.636 83.1927 475.021 83.1927ZM473.974 45.1418C477.814 45.1418 481.014 45.5782 483.574 46.4509C486.134 47.3236 488.17 48.5745 489.683 50.2036C491.254 51.8327 492.359 53.8109 492.999 56.1382C493.639 58.4655 493.959 61.0545 493.959 63.9055V90.96C492.098 91.3673 489.509 91.8327 486.192 92.3564C482.876 92.9382 478.861 93.2291 474.149 93.2291C471.181 93.2291 468.476 92.9673 466.032 92.4436C463.647 91.92 461.581 91.0764 459.836 89.9127C458.09 88.6909 456.752 87.12 455.821 85.2C454.89 83.28 454.425 80.9236 454.425 78.1309C454.425 75.4545 454.949 73.1855 455.996 71.3236C457.101 69.4618 458.556 67.9782 460.359 66.8727C462.163 65.7673 464.229 64.9818 466.556 64.5164C468.883 63.9927 471.298 63.7309 473.799 63.7309C475.487 63.7309 476.97 63.8182 478.25 63.9927C479.589 64.1091 480.665 64.2836 481.479 64.5164V63.2945C481.479 61.0836 480.81 59.3091 479.472 57.9709C478.134 56.6327 475.807 55.9636 472.49 55.9636C470.279 55.9636 468.098 56.1382 465.945 56.4873C463.792 56.7782 461.93 57.2145 460.359 57.7964L458.701 47.3236C459.458 47.0909 460.389 46.8582 461.494 46.6255C462.658 46.3345 463.909 46.1018 465.247 45.9273C466.585 45.6945 467.981 45.52 469.436 45.4036C470.949 45.2291 472.461 45.1418 473.974 45.1418Z" fill="#322153"/>
<path d="M39.9327 5.04441L27.4556 28.8711C26.65 30.4095 27.1805 32.3329 28.6489 33.1978L48.1858 44.706C49.6744 45.5827 51.567 45.0435 52.4135 43.5011L76.2939 0.00175858H48.1094C44.6978 0.00175858 41.5598 1.93684 39.9327 5.04441V5.04441Z" fill="#29A361"/>
<path d="M76.2933 0L52.4137 43.4999C51.5656 45.042 49.6743 45.5826 48.1862 44.7063L43.0869 41.7037C44.33 41.9111 45.6235 41.3189 46.2819 40.1178L68.3099 0H76.2933Z" fill="#248F55"/>
<path d="M102.423 23.0706L93.8168 5.31547C92.2379 2.05793 89.0209 0.00175858 85.5035 0.00175858H60.6218L79.7259 33.5907C79.6632 33.6199 79.6003 33.649 79.5377 33.6782C78.336 34.2388 78.3851 36.0253 79.6154 36.5149L96.1118 43.0801C96.8763 43.3843 97.7338 42.9887 98.0273 42.1967L104.387 25.0351C104.857 23.7656 103.622 22.5407 102.423 23.0706V23.0706Z" fill="#34CB79"/>
<path d="M104.387 25.0336L98.0261 42.1949C97.7339 42.9893 96.875 43.3852 96.1113 43.0794L91.1199 41.0921L97.0701 25.0336C97.4084 24.1229 96.8681 23.236 96.0929 23.0034C95.3548 22.7816 94.7245 22.2806 94.3796 21.5689L86.5 5.31478C84.9222 2.05829 81.7062 0 78.1873 0H85.5044C89.0207 0 92.2367 2.05829 93.8171 5.31478L102.422 23.0712C103.624 22.5416 104.856 23.7644 104.387 25.0336Z" fill="#2FB86E"/>
<path d="M85.7984 91.5253C85.5668 90.5396 84.3395 90.1172 83.5904 90.8933L70.6971 104.255C70.1827 104.788 70.1827 105.652 70.6971 106.185L83.6402 119.598C84.384 120.369 85.5987 119.957 85.8432 118.988H104.877C108.381 118.988 111.588 116.948 113.174 113.709L124.034 91.525H85.7984V91.5253Z" fill="#29A361"/>
<path d="M101.866 91.5255L108.038 101.203C109.433 103.391 109.587 106.187 108.442 108.526L105.904 113.71C104.321 116.947 101.112 118.989 97.6094 118.989H104.877C108.38 118.989 111.588 116.947 113.174 113.71L124.034 91.5258H101.866V91.5255Z" fill="#248F55"/>
<path d="M59.8238 116.438V92.8244C59.8238 91.0496 58.4354 89.6106 56.7226 89.6106H5.63965L18.7858 114.622C20.4152 117.722 23.5491 119.652 26.9556 119.652H56.7226C58.4351 119.652 59.8238 118.213 59.8238 116.438Z" fill="#29A361"/>
<path d="M27.3041 89.6128L15.9595 109.247L5.63965 89.6128H27.3041Z" fill="#248F55"/>
<path d="M59.8234 92.8249V116.439C59.8234 118.214 58.4353 119.652 56.7232 119.652H48.5869C50.299 119.652 51.6871 118.214 51.6871 116.439V92.8249C51.6871 91.0507 50.299 89.6122 48.5869 89.6122H56.7232C58.4353 89.6119 59.8234 91.0507 59.8234 92.8249Z" fill="#248F55"/>
<path d="M34.8673 68.7452L32.5733 50.8547C32.4601 49.9708 31.6767 49.3497 30.824 49.467L13.4941 51.8534C12.1891 52.033 11.7028 53.6782 12.5967 54.5934L1.65961 70.9302C-0.345707 73.9254 -0.54923 77.8364 1.13341 81.0377L13.0351 103.682L32.3601 70.2291C32.367 70.2344 32.3736 70.2399 32.3806 70.2452C33.4836 71.1127 35.0496 70.1679 34.8673 68.7452Z" fill="#34CB79"/>
<path d="M32.3795 70.2452C32.3741 70.2397 32.3664 70.2344 32.3611 70.2288L13.0354 103.681L9.06079 96.1196L24.7903 68.887L25.2265 68.1315C25.4651 67.7187 25.9312 67.5404 26.3871 67.6321C26.3894 67.6326 26.3917 67.6329 26.394 67.6334C27.3638 67.8125 28.3586 66.9752 28.2096 65.826L26.1945 50.1032L30.8224 49.4673C31.6758 49.3499 32.4608 49.9723 32.5741 50.8539L34.8683 68.7468C35.0503 70.1686 33.483 71.113 32.3795 70.2452V70.2452Z" fill="#2FB86E"/>
<path d="M129.262 69.7007L114.301 47.2355C113.384 45.8573 111.599 45.4405 110.199 46.2773L90.7025 57.9368C89.1551 58.8621 88.6803 60.9477 89.6654 62.4924L117.15 105.587L129.902 79.539C131.445 76.3862 131.2 72.6106 129.262 69.7007V69.7007Z" fill="#34CB79"/>
<path d="M129.902 79.5396L117.149 105.586L112.871 98.8763L122.338 79.5393C123.881 76.3864 123.636 72.6114 121.698 69.7015L107.266 48.0335L110.201 46.2784C111.599 45.4403 113.385 45.8578 114.302 47.2365L129.263 69.7017C131.201 72.6116 131.446 76.3869 129.902 79.5396V79.5396Z" fill="#2FB86E"/>
</g>
<defs>
<linearGradient id="paint0_linear" x1="387.5" y1="289.5" x2="886" y2="788" gradientUnits="userSpaceOnUse">
<stop stop-color="white"/>
<stop offset="1" stop-color="white" stop-opacity="0"/>
</linearGradient>
<clipPath id="clip0">
<rect width="493.96" height="120" fill="white"/>
</clipPath>
</defs>
</svg>
